# xmcd CD database file
#
# Track frame offsets:
#	150
#	25257
#	42745
#	66847
#	81027
#	87375
#	100395
#	114112
#	149142
#	157730
#	175665
#	192260
#	211977
#
# Disc length: 3108 seconds
#
# Revision: 1
# Processed by: cddbd v1.4PL0 Copyright (c) Steve Scherf et al.
# Submitted via: CDex 1.50beta9
#
DISCID=af0c220d
DTITLE=Doug Smith - Hope
DYEAR=1998
DGENRE=Easy Listening
TTITLE0=Song for Suns
TTITLE1=The Hartz Horizon
TTITLE2=See, Sea, Strut
TTITLE3=Less Pomp, More Circumstance
TTITLE4=Tumbleweed Rag
TTITLE5=Stone Road
TTITLE6=Miles To Go
TTITLE7=Hope
TTITLE8=Kinda Like Home
TTITLE9=Rat House Blues
TTITLE10=Dreams Come True
TTITLE11=The Final Destination
TTITLE12=West Texas
EXTD=YEAR: 1998
EXTT0=
EXTT1=
EXTT2=
EXTT3=
EXTT4=
EXTT5=
EXTT6=
EXTT7=
EXTT8=
EXTT9=
EXTT10=
EXTT11=
EXTT12=
PLAYORDER=
